<svg width="30" height="30" viewBox="0 0 30 30" fill="none" xmlns="http://www.w3.org/2000/svg">
<path fill-rule="evenodd" clip-rule="evenodd" d="M15 30C23.2843 30 30 23.2843 30 15C30 6.71573 23.2843 0 15 0C6.71573 0 0 6.71573 0 15C0 23.2843 6.71573 30 15 30ZM23.8009 16.8915C23.9313 16.2816 24 15.6488 24 15C24 10.0294 19.9706 6 15 6C10.0294 6 6 10.0294 6 15C6 15.6488 6.06865 16.2816 6.1991 16.8915C6.57385 16.8313 6.95827 16.8 7.35001 16.8C11.3228 16.8 14.544 20.0176 14.55 23.989C14.6991 23.9963 14.8491 24 15 24C15.1509 24 15.3009 23.9963 15.45 23.989C15.456 20.0176 18.6772 16.8 22.65 16.8C23.0417 16.8 23.4261 16.8313 23.8009 16.8915Z" fill="#32A23A"/>
</svg>
