<svg width="30" height="30" viewBox="0 0 30 30" fill="none" xmlns="http://www.w3.org/2000/svg">
<path fill-rule="evenodd" clip-rule="evenodd" d="M23.6765 11.4C23.8873 10.6359 24 9.83113 24 9C24 4.02944 19.9706 0 15 0C10.0294 0 6 4.02944 6 9C6 13.4595 9.24343 17.1614 13.5 17.8756C13.9878 17.9574 14.4889 18 15 18C19.1394 18 22.6262 15.2054 23.6765 11.4ZM15 12C16.6569 12 18 10.6569 18 9C18 7.34315 16.6569 6 15 6C13.3431 6 12 7.34315 12 9C12 10.6569 13.3431 12 15 12Z" fill="#E00000"/>
<path d="M13.2 30C16.2 26.1 24 16.8 24 9.6L14.7 18L13.2 30Z" fill="#E00000"/>
</svg>
